<svg width="44" height="43" viewBox="0 0 44 43" fill="none" xmlns="http://www.w3.org/2000/svg">
<g id="dise&#195;&#177;o">
<path id="Fill 1" fill-rule="evenodd" clip-rule="evenodd" d="M36.4502 18.7239H40.2069V0.884895C40.2069 0.840746 40.1702 0.804874 40.1251 0.804874H36.5319C36.4868 0.804874 36.4502 0.840746 36.4502 0.884895V18.7239ZM40.6176 19.5287H36.0396C35.8128 19.5287 35.6289 19.3486 35.6289 19.1263V0.884895C35.6289 0.396949 36.0339 6.10352e-05 36.5319 6.10352e-05H40.1251C40.6231 6.10352e-05 41.0282 0.396949 41.0282 0.884895V19.1263C41.0282 19.3486 40.8443 19.5287 40.6176 19.5287Z" fill="#481AE7"/>
<mask id="mask0" mask-type="alpha" maskUnits="userSpaceOnUse" x="0" y="0" width="44" height="43">
<path id="Clip 4" fill-rule="evenodd" clip-rule="evenodd" d="M0 42.9483H43.9477V0H0V42.9483Z" fill="white"/>
</mask>
<g mask="url(#mask0)">
<path id="Fill 3" fill-rule="evenodd" clip-rule="evenodd" d="M36.4502 18.724H40.2069V3.80506H36.4502V18.724ZM40.6176 19.5288H36.0396C35.8129 19.5288 35.6289 19.3486 35.6289 19.1264V3.40265C35.6289 3.18041 35.8129 3.00024 36.0396 3.00024H40.6176C40.8444 3.00024 41.0282 3.18041 41.0282 3.40265V19.1264C41.0282 19.3486 40.8444 19.5288 40.6176 19.5288Z" fill="#481AE7"/>
<path id="Fill 5" fill-rule="evenodd" clip-rule="evenodd" d="M36.686 19.5288L38.246 22.7847L39.946 19.5288H36.686ZM38.2302 24.1009C38.2279 24.1009 38.2256 24.1009 38.2232 24.1008C38.0666 24.0981 37.9251 24.0085 37.8584 23.8695L35.6678 19.2973C35.6081 19.1727 35.6176 19.0268 35.6929 18.9107C35.7683 18.7943 35.8991 18.7239 36.0395 18.7239H40.6175C40.7606 18.7239 40.8931 18.7968 40.9678 18.9164C41.0425 19.0359 41.0483 19.1849 40.9831 19.3096L38.5958 23.8818C38.5255 24.0164 38.3842 24.1009 38.2302 24.1009Z" fill="#481AE7"/>
<path id="Fill 6" fill-rule="evenodd" clip-rule="evenodd" d="M24.3842 28.2949H29.9105L27.1524 24.1992L24.3842 28.2949ZM30.6735 29.0997H23.6196C23.4684 29.0997 23.3295 29.0183 23.2579 28.8877C23.1863 28.7572 23.1937 28.5987 23.2773 28.4751L26.8108 23.2474C26.8868 23.1348 27.0154 23.0671 27.1531 23.0671H27.1535C27.2912 23.0672 27.42 23.1351 27.4959 23.2479L31.0161 28.4756C31.0994 28.5992 31.1067 28.7577 31.0351 28.8881C30.9634 29.0184 30.8246 29.0997 30.6735 29.0997Z" fill="#481AE7"/>
<path id="Fill 7" fill-rule="evenodd" clip-rule="evenodd" d="M3.62932 20.8586C3.50037 20.8586 3.37353 20.7992 3.29363 20.6883C3.16269 20.5068 3.20669 20.2557 3.39207 20.1275L13.6178 13.0482C13.7744 12.9399 13.9863 12.9519 14.1289 13.0773L21.4562 19.5163L29.6764 12.7696C29.8503 12.6268 30.1093 12.6494 30.255 12.8196C30.4006 12.99 30.3777 13.2439 30.2037 13.3866L21.7107 20.3572C21.5543 20.4856 21.3249 20.482 21.1729 20.3483L13.8243 13.8906L3.86598 20.7848C3.79394 20.8347 3.71122 20.8586 3.62932 20.8586Z" fill="#481AE7"/>
<path id="Fill 8" fill-rule="evenodd" clip-rule="evenodd" d="M1.39977 13.1686H5.32657V9.30782L1.39977 13.1686ZM5.73724 13.9734H0.410654C0.244745 13.9734 0.0950274 13.8755 0.0314327 13.7253C-0.0322793 13.5752 0.00268608 13.4021 0.119785 13.2869L5.44625 8.05002C5.56358 7.93481 5.7404 7.89998 5.89411 7.96218C6.04758 8.02438 6.1479 8.1712 6.1479 8.33412V13.571C6.1479 13.7933 5.96392 13.9734 5.73724 13.9734Z" fill="#481AE7"/>
<path id="Fill 9" fill-rule="evenodd" clip-rule="evenodd" d="M10.0042 23.8719C7.44302 23.8719 5.35942 25.9136 5.35942 28.4231V37.5921C5.35942 40.1017 7.44302 42.1434 10.0042 42.1434H10.1946C12.7558 42.1434 14.8394 40.1017 14.8394 37.5921V28.4231C14.8394 25.9136 12.7558 23.8719 10.1946 23.8719H10.0042ZM10.1946 42.9483H10.0042C6.99024 42.9483 4.53809 40.5454 4.53809 37.5921V28.4231C4.53809 25.4698 6.99024 23.0671 10.0042 23.0671H10.1946C13.2087 23.0671 15.6607 25.4698 15.6607 28.4231V37.5921C15.6607 40.5454 13.2087 42.9483 10.1946 42.9483Z" fill="#481AE7"/>
<path id="Fill 10" fill-rule="evenodd" clip-rule="evenodd" d="M15.6608 34.2073H42.4869C42.8395 34.2073 43.1263 33.9262 43.1263 33.5807V9.36312C43.1263 9.01762 42.8395 8.73651 42.4869 8.73651H41.0283V19.1264C41.0283 19.3487 40.8444 19.5288 40.6176 19.5288H36.0398C35.813 19.5288 35.6291 19.3487 35.6291 19.1264V8.73651H1.46092C1.10821 8.73651 0.821333 9.01762 0.821333 9.36312V33.5807C0.821333 33.9262 1.10821 34.2073 1.46092 34.2073H4.53822V28.4232C4.53822 25.4698 6.99037 23.0671 10.0043 23.0671H10.1947C13.2088 23.0671 15.6608 25.4698 15.6608 28.4232V34.2073ZM42.4869 35.0122H15.2502C15.0234 35.0122 14.8395 34.832 14.8395 34.6098V28.4232C14.8395 25.9136 12.7559 23.8719 10.1947 23.8719H10.0043C7.44316 23.8719 5.35955 25.9136 5.35955 28.4232V34.6098C5.35955 34.832 5.17569 35.0122 4.94889 35.0122H1.46092C0.655307 35.0122 0 34.37 0 33.5807V9.36312C0 8.57383 0.655307 7.9317 1.46092 7.9317H36.0398C36.2664 7.9317 36.4504 8.11186 36.4504 8.33411V18.724H40.207V8.33411C40.207 8.11186 40.3909 7.9317 40.6176 7.9317H42.4869C43.2924 7.9317 43.9477 8.57383 43.9477 9.36312V33.5807C43.9477 34.37 43.2924 35.0122 42.4869 35.0122Z" fill="#481AE7"/>
<path id="Fill 11" fill-rule="evenodd" clip-rule="evenodd" d="M10.168 31.4031C9.94119 31.4031 9.75732 31.2229 9.75732 31.0006V27.0352C9.75732 26.813 9.94119 26.6328 10.168 26.6328C10.3948 26.6328 10.5787 26.813 10.5787 27.0352V31.0006C10.5787 31.2229 10.3948 31.4031 10.168 31.4031Z" fill="#481AE7"/>
</g>
</g>
</svg>
