<svg width="37" height="43" viewBox="0 0 37 43" fill="none" xmlns="http://www.w3.org/2000/svg">
<g id="emprendimiento">
<path id="Fill 1" fill-rule="evenodd" clip-rule="evenodd" d="M20.3716 32.2297H21.4224L21.2254 22.2028C21.2212 21.9936 21.3849 21.8187 21.5957 21.807C21.804 21.7965 21.9888 21.9508 22.0085 22.1592L22.3848 26.1671H23.2064C23.2469 25.1356 23.3548 22.1713 23.3548 19.9217C23.3548 17.8633 21.8096 16.7915 21.2103 16.4532L19.0865 18.4908C18.9347 18.6364 18.694 18.6367 18.5417 18.4918L16.1212 16.1871C14.444 17.3237 14.2759 19.1568 14.2847 19.9173C14.2891 20.2967 14.3008 24.7931 14.3043 26.1671H15.2728L15.5457 22.169C15.5601 21.9587 15.7364 21.798 15.9534 21.8066C16.1659 21.8154 16.3328 21.9902 16.3297 22.201L16.1807 32.2297H17.1713L18.3864 27.6375C18.4316 27.4667 18.5874 27.3475 18.7656 27.3473H18.7661C18.9441 27.3473 19.0999 27.4661 19.1454 27.6367L20.3716 32.2297ZM21.8224 33.0075H20.0695C19.8915 33.0075 19.7356 32.8887 19.6901 32.7181L18.7677 29.263L17.8536 32.7173C17.8085 32.8883 17.6524 33.0075 17.474 33.0075H15.7824C15.6774 33.0075 15.5767 32.9657 15.5029 32.8916C15.4293 32.8174 15.3886 32.7171 15.39 32.613L15.4742 26.9448H13.9129C13.6965 26.9448 13.5209 26.7713 13.5205 26.5568C13.5204 26.495 13.505 20.3616 13.4999 19.9263C13.4891 18.9943 13.7083 16.684 15.9715 15.3603C16.1233 15.2714 16.3159 15.2938 16.4428 15.4147L18.8126 17.6711L20.8671 15.6998C20.9822 15.5897 21.1534 15.5594 21.2994 15.624C21.4154 15.675 24.1396 16.9092 24.1396 19.9217C24.1396 22.6924 23.9771 26.5338 23.9756 26.5723C23.9666 26.7805 23.7936 26.9448 23.5834 26.9448H22.1035L22.2147 32.6111C22.2168 32.7155 22.1765 32.8163 22.1026 32.891C22.0288 32.9655 21.9279 33.0075 21.8224 33.0075Z" fill="#481AE7"/>
<path id="Fill 3" fill-rule="evenodd" clip-rule="evenodd" d="M18.8137 9.10157C17.39 9.10157 16.2316 10.2495 16.2316 11.6603C16.2316 13.0712 17.39 14.2191 18.8137 14.2191C20.2374 14.2191 21.3957 13.0712 21.3957 11.6603C21.3957 10.2495 20.2374 9.10157 18.8137 9.10157ZM18.8137 14.9969C16.957 14.9969 15.4468 13.5001 15.4468 11.6603C15.4468 9.82057 16.957 8.32379 18.8137 8.32379C20.6703 8.32379 22.1806 9.82057 22.1806 11.6603C22.1806 13.5001 20.6703 14.9969 18.8137 14.9969Z" fill="#481AE7"/>
<path id="Fill 5" fill-rule="evenodd" clip-rule="evenodd" d="M18.9414 6.02924C11.4456 6.02924 5.34735 12.0726 5.34735 19.5009C5.34735 24.2667 7.92928 28.7248 12.0856 31.1356C12.2059 31.2052 12.2798 31.333 12.2798 31.4711V37.8808C12.2798 38.1457 12.4972 38.3611 12.7646 38.3611H25.0078C25.2751 38.3611 25.4926 38.1457 25.4926 37.8808V31.5351C25.4926 31.3958 25.568 31.267 25.6898 31.1978C29.9124 28.8 32.5355 24.318 32.5355 19.5009C32.5355 12.0726 26.4371 6.02924 18.9414 6.02924ZM25.0078 39.1389H12.7646C12.0645 39.1389 11.495 38.5746 11.495 37.8808V31.692C7.21305 29.1174 4.5625 24.467 4.5625 19.5009C4.5625 11.6437 11.0128 5.25146 18.9414 5.25146C26.87 5.25146 33.3204 11.6437 33.3204 19.5009C33.3204 24.5205 30.6275 29.196 26.2775 31.7585V37.8808C26.2775 38.5746 25.7079 39.1389 25.0078 39.1389Z" fill="#481AE7"/>
<g id="Group 9">
<mask id="mask0" mask-type="alpha" maskUnits="userSpaceOnUse" x="13" y="39" width="12" height="4">
<path id="Clip 8" fill-rule="evenodd" clip-rule="evenodd" d="M13.1221 39.642H24.5699V42.7893H13.1221V39.642Z" fill="white"/>
</mask>
<g mask="url(#mask0)">
<path id="Fill 7" fill-rule="evenodd" clip-rule="evenodd" d="M13.9125 40.4198C13.9839 41.3094 14.7373 42.0116 15.653 42.0116H22.039C22.9547 42.0116 23.708 41.3094 23.7794 40.4198H13.9125ZM22.039 42.7894H15.653C14.2574 42.7894 13.1221 41.6641 13.1221 40.2811V40.0309C13.1221 39.8161 13.2979 39.642 13.5145 39.642H24.1774C24.3941 39.642 24.5699 39.8161 24.5699 40.0309V40.2811C24.5699 41.6641 23.4345 42.7894 22.039 42.7894Z" fill="#481AE7"/>
</g>
</g>
<path id="Fill 10" fill-rule="evenodd" clip-rule="evenodd" d="M28.4683 35.4914H9.4642C9.24747 35.4914 9.07178 35.3173 9.07178 35.1025C9.07178 34.8878 9.24747 34.7137 9.4642 34.7137H28.4683C28.685 34.7137 28.8607 34.8878 28.8607 35.1025C28.8607 35.3173 28.685 35.4914 28.4683 35.4914Z" fill="#481AE7"/>
<path id="Fill 12" fill-rule="evenodd" clip-rule="evenodd" d="M35.4217 29.0844C35.3581 29.0844 35.2935 29.0691 35.2338 29.0367L32.5841 27.6013C32.394 27.4983 32.3241 27.262 32.428 27.0735C32.532 26.8851 32.7702 26.8159 32.9606 26.9187L35.6103 28.3542C35.8004 28.4572 35.8703 28.6935 35.7663 28.882C35.695 29.0112 35.5605 29.0844 35.4217 29.0844Z" fill="#481AE7"/>
<path id="Fill 14" fill-rule="evenodd" clip-rule="evenodd" d="M36.5853 19.6702H33.5277C33.3109 19.6702 33.1353 19.4961 33.1353 19.2813C33.1353 19.0665 33.3109 18.8924 33.5277 18.8924H36.5853C36.8021 18.8924 36.9778 19.0665 36.9778 19.2813C36.9778 19.4961 36.8021 19.6702 36.5853 19.6702Z" fill="#481AE7"/>
<path id="Fill 16" fill-rule="evenodd" clip-rule="evenodd" d="M32.1911 12.1133C32.0558 12.1133 31.9242 12.0439 31.8514 11.9194C31.7426 11.7336 31.8064 11.4957 31.9939 11.388L35.2251 9.53074C35.4125 9.42319 35.6525 9.48619 35.7614 9.67208C35.8702 9.85786 35.8062 10.0957 35.6188 10.2036L32.3877 12.0607C32.3257 12.0964 32.2581 12.1133 32.1911 12.1133Z" fill="#481AE7"/>
<path id="Fill 18" fill-rule="evenodd" clip-rule="evenodd" d="M26.5679 6.47757C26.503 6.47757 26.4372 6.46157 26.3766 6.4279C26.1874 6.32301 26.12 6.08601 26.2259 5.89868L28.0354 2.69657C28.1412 2.50913 28.3804 2.44224 28.5695 2.54724C28.7586 2.65213 28.8261 2.88913 28.7201 3.07657L26.9107 6.27857C26.8387 6.4059 26.7054 6.47757 26.5679 6.47757Z" fill="#481AE7"/>
<path id="Fill 20" fill-rule="evenodd" clip-rule="evenodd" d="M2.63647 29.0844C2.49767 29.0844 2.36312 29.0113 2.29181 28.882C2.18788 28.6935 2.25773 28.4572 2.44788 28.3542L5.09753 26.9188C5.2878 26.8159 5.52617 26.885 5.63011 27.0735C5.73405 27.262 5.66419 27.4983 5.47404 27.6013L2.82439 29.0368C2.76463 29.0691 2.70005 29.0844 2.63647 29.0844Z" fill="#481AE7"/>
<path id="Fill 22" fill-rule="evenodd" clip-rule="evenodd" d="M3.45008 19.6702H0.392424C0.175694 19.6702 0 19.4961 0 19.2813C0 19.0665 0.175694 18.8924 0.392424 18.8924H3.45008C3.66681 18.8924 3.84251 19.0665 3.84251 19.2813C3.84251 19.4961 3.66681 19.6702 3.45008 19.6702Z" fill="#481AE7"/>
<path id="Fill 24" fill-rule="evenodd" clip-rule="evenodd" d="M5.86702 12.1133C5.80008 12.1133 5.73247 12.0964 5.67047 12.0607L2.43925 10.2036C2.25178 10.0957 2.18798 9.85781 2.29663 9.67203C2.4055 9.48614 2.64566 9.42325 2.8329 9.53069L6.06424 11.3879C6.2517 11.4957 6.3155 11.7336 6.20674 11.9194C6.13398 12.0438 6.00235 12.1133 5.86702 12.1133Z" fill="#481AE7"/>
<path id="Fill 26" fill-rule="evenodd" clip-rule="evenodd" d="M11.4899 6.47759C11.3524 6.47759 11.2191 6.40593 11.1471 6.27859L9.33773 3.07659C9.23178 2.88915 9.29927 2.65215 9.48831 2.54726C9.67735 2.44226 9.91661 2.50904 10.0225 2.69659L11.832 5.8987C11.9378 6.08604 11.8704 6.32304 11.6813 6.42793C11.6206 6.46159 11.5548 6.47759 11.4899 6.47759Z" fill="#481AE7"/>
<path id="Fill 28" fill-rule="evenodd" clip-rule="evenodd" d="M18.9427 4.42822C18.726 4.42822 18.5503 4.25411 18.5503 4.03933V0.388889C18.5503 0.174111 18.726 0 18.9427 0C19.1594 0 19.3351 0.174111 19.3351 0.388889V4.03933C19.3351 4.25411 19.1594 4.42822 18.9427 4.42822Z" fill="#481AE7"/>
</g>
</svg>
