<svg width="47" height="43" viewBox="0 0 47 43" fill="none" xmlns="http://www.w3.org/2000/svg">
<g id="estrategia">
<mask id="mask0" mask-type="alpha" maskUnits="userSpaceOnUse" x="0" y="0" width="47" height="43">
<path id="Clip 2" fill-rule="evenodd" clip-rule="evenodd" d="M0 0H46.9477V42.9582H0V0Z" fill="white"/>
</mask>
<g mask="url(#mask0)">
<path id="Fill 1" fill-rule="evenodd" clip-rule="evenodd" d="M14.2374 35.047H32.7334V29.1728H14.2374V35.047ZM33.1541 35.8926H13.8167C13.5845 35.8926 13.396 35.7033 13.396 35.4698V28.7501C13.396 28.5166 13.5845 28.3273 13.8167 28.3273H33.1541C33.3865 28.3273 33.5749 28.5166 33.5749 28.7501V35.4698C33.5749 35.7033 33.3865 35.8926 33.1541 35.8926Z" fill="#481AE7"/>
<path id="Fill 3" fill-rule="evenodd" clip-rule="evenodd" d="M18.4117 13.6974H28.588V11.5611H18.4117V13.6974ZM29.0087 14.5429H17.991C17.7587 14.5429 17.5703 14.3537 17.5703 14.1202V11.1383C17.5703 10.9048 17.7587 10.7156 17.991 10.7156H29.0087C29.2411 10.7156 29.4295 10.9048 29.4295 11.1383V14.1202C29.4295 14.3537 29.2411 14.5429 29.0087 14.5429Z" fill="#481AE7"/>
<path id="Fill 4" fill-rule="evenodd" clip-rule="evenodd" d="M6.70423 35.0483H40.4056V13.1869H29.4299V14.1202C29.4299 14.3537 29.2414 14.5429 29.0092 14.5429H17.9913C17.7591 14.5429 17.5706 14.3537 17.5706 14.1202V13.1869H6.70423V35.0483ZM40.8263 35.8938H6.28351C6.05115 35.8938 5.86279 35.7045 5.86279 35.471V12.7641C5.86279 12.5306 6.05115 12.3414 6.28351 12.3414H17.9913C18.2237 12.3414 18.412 12.5306 18.412 12.7641V13.6974H28.5884V12.7641C28.5884 12.5306 28.7768 12.3414 29.0092 12.3414H40.8263C41.0587 12.3414 41.2471 12.5306 41.2471 12.7641V35.471C41.2471 35.7045 41.0587 35.8938 40.8263 35.8938Z" fill="#481AE7"/>
<path id="Fill 5" fill-rule="evenodd" clip-rule="evenodd" d="M17.0949 28.3273H29.8617V26.7569C27.0734 21.6357 27.1626 16.1637 27.2627 14.5429H19.817C20.0949 16.521 19.7428 19.1456 18.7677 22.3567C18.0659 24.6681 17.2778 26.4859 17.0949 26.8975V28.3273ZM30.2824 29.1728H16.6741C16.4418 29.1728 16.2534 28.9835 16.2534 28.75V26.8067C16.2534 26.746 16.2664 26.6859 16.2915 26.6307C16.3007 26.611 17.1994 24.6269 17.966 22.0999C18.9687 18.7947 19.2934 16.0653 18.9051 14.2071C18.8792 14.0823 18.9104 13.9526 18.9904 13.8537C19.0702 13.7549 19.1901 13.6974 19.3168 13.6974H27.7185C27.838 13.6974 27.9518 13.7486 28.0317 13.838C28.1114 13.9274 28.1497 14.0467 28.1367 14.166C28.1298 14.2307 27.4749 20.6912 30.6503 26.443C30.6849 26.5058 30.7031 26.5764 30.7031 26.6481V28.75C30.7031 28.9835 30.5147 29.1728 30.2824 29.1728Z" fill="#481AE7"/>
<path id="Fill 6" fill-rule="evenodd" clip-rule="evenodd" d="M1.94719 39.2653C1.33752 39.2653 0.841432 39.7638 0.841432 40.3764V41.0015C0.841432 41.6142 1.33752 42.1127 1.94719 42.1127H44.8196C45.5291 42.1127 46.1063 41.5327 46.1063 40.8198V40.5581C46.1063 39.8452 45.5291 39.2653 44.8196 39.2653H29.3756L27.6227 41.0352C27.5437 41.1149 27.4365 41.1597 27.3244 41.1597H19.6078C19.4935 41.1597 19.3841 41.113 19.3047 41.0302L17.6131 39.2653H1.94719ZM44.8196 42.9582H1.94719C0.873407 42.9582 0 42.0805 0 41.0015V40.3764C0 39.2976 0.873407 38.4198 1.94719 38.4198H17.792C17.9064 38.4198 18.0158 38.4665 18.095 38.5493L19.7866 40.3142H27.1495L28.9025 38.5443C28.9813 38.4646 29.0887 38.4198 29.2007 38.4198H44.8196C45.993 38.4198 46.9477 39.379 46.9477 40.5581V40.8198C46.9477 41.9989 45.993 42.9582 44.8196 42.9582Z" fill="#481AE7"/>
<path id="Fill 7" fill-rule="evenodd" clip-rule="evenodd" d="M30.3175 32.2384H16.7147C16.4823 32.2384 16.2939 32.0491 16.2939 31.8156C16.2939 31.5822 16.4823 31.3929 16.7147 31.3929H30.3175C30.5499 31.3929 30.7382 31.5822 30.7382 31.8156C30.7382 32.0491 30.5499 32.2384 30.3175 32.2384Z" fill="#481AE7"/>
<path id="Fill 8" fill-rule="evenodd" clip-rule="evenodd" d="M19.7868 40.3142H27.1497L28.9026 38.5443C28.9814 38.4646 29.0888 38.4198 29.2007 38.4198H43.4619V13.0344C43.4619 11.5341 42.2472 10.3134 40.754 10.3134H28.2821C27.9057 10.7659 27.4723 11.1605 26.9912 11.4883C26.9215 11.5358 26.8393 11.5611 26.7551 11.5611H20.2158C20.1316 11.5611 20.0494 11.5358 19.9796 11.4882C19.4985 11.1602 19.065 10.7657 18.6888 10.3134H6.0737C4.58051 10.3134 3.36585 11.5341 3.36585 13.0344V38.4198H17.7921C17.9064 38.4198 18.0159 38.4666 18.0951 38.5493L19.7868 40.3142ZM27.3245 41.1597H19.6079C19.4936 41.1597 19.3841 41.113 19.3049 41.0303L17.6132 39.2653H2.94513C2.71277 39.2653 2.52441 39.0761 2.52441 38.8426V13.0344C2.52441 11.0678 4.11664 9.4679 6.0737 9.4679H18.8897C19.0191 9.4679 19.1414 9.52781 19.2211 9.63023C19.5459 10.0476 19.9245 10.4122 20.3478 10.7156H26.6233C27.0463 10.4123 27.4249 10.0477 27.75 9.63011C27.8298 9.52781 27.952 9.4679 28.0814 9.4679H40.754C42.7111 9.4679 44.3033 11.0678 44.3033 13.0344V38.8426C44.3033 39.0761 44.115 39.2653 43.8826 39.2653H29.3756L27.6227 41.0352C27.5438 41.1149 27.4366 41.1597 27.3245 41.1597Z" fill="#481AE7"/>
<path id="Fill 9" fill-rule="evenodd" clip-rule="evenodd" d="M28.0809 10.3134C27.9901 10.3134 27.8988 10.2841 27.822 10.2237C27.6389 10.0798 27.6065 9.81409 27.7497 9.63025C28.5006 8.66553 28.8975 7.50839 28.8975 6.28398C28.8975 3.28521 26.4697 0.845445 23.4853 0.845445C20.5009 0.845445 18.0729 3.28521 18.0729 6.28398C18.0729 7.50827 18.4699 8.66541 19.2208 9.63025C19.364 9.81409 19.3317 10.0798 19.1486 10.2237C18.966 10.3673 18.7014 10.3352 18.558 10.1511C17.6903 9.03622 17.2314 7.69887 17.2314 6.28398C17.2314 2.81898 20.0369 -6.10352e-05 23.4853 -6.10352e-05C26.9335 -6.10352e-05 29.739 2.81898 29.739 6.28398C29.739 7.69899 29.2804 9.03622 28.4125 10.1511C28.3295 10.2577 28.2058 10.3134 28.0809 10.3134Z" fill="#481AE7"/>
</g>
</g>
</svg>
